<svg id="Calque_1" data-name="Calque 1" xmlns="http://www.w3.org/2000/svg" xmlns:xlink="http://www.w3.org/1999/xlink" viewBox="0 0 134.12 41.62">
  <defs>
    <style>
      .cls-1 {
        fill: none;
      }

      .cls-2 {
        fill: #ffed00;
      }

      .cls-3 {
        fill: url(#Dégradé_sans_nom);
      }

      .cls-4 {
        clip-path: url(#clip-path);
      }

      .cls-5 {
        fill: url(#Dégradé_sans_nom_2);
      }

      .cls-6 {
        fill: url(#Dégradé_sans_nom_3);
      }

      .cls-7 {
        clip-path: url(#clip-path-2);
      }

      .cls-8 {
        fill: url(#Dégradé_sans_nom_4);
      }

      .cls-9 {
        fill: #fff;
      }
    </style>
    <linearGradient id="Dégradé_sans_nom" data-name="Dégradé sans nom" x1="0.54" y1="16.47" x2="48.07" y2="16.47" gradientTransform="matrix(1, 0, 0, -1, -0.54, 41.54)" gradientUnits="userSpaceOnUse">
      <stop offset="0" stop-color="#faea27"/>
      <stop offset="1" stop-color="#fbbb29"/>
    </linearGradient>
    <clipPath id="clip-path" transform="translate(-0.54 -0.35)">
      <polygon class="cls-1" points="0.54 33.49 19.99 33.49 17.88 29.7 7.2 29.7 14.67 16.53 29.53 41.97 33.93 41.97 14.67 8.86 0.54 33.49"/>
    </clipPath>
    <linearGradient id="Dégradé_sans_nom_2" data-name="Dégradé sans nom 2" x1="-193.82" y1="387.76" x2="-192.82" y2="387.76" gradientTransform="translate(9212.42 -18405.04) scale(47.53)" xlink:href="#Dégradé_sans_nom"/>
    <linearGradient id="Dégradé_sans_nom_3" data-name="Dégradé sans nom 3" x1="0.54" y1="24.99" x2="48.07" y2="24.99" xlink:href="#Dégradé_sans_nom"/>
    <clipPath id="clip-path-2" transform="translate(-0.54 -0.35)">
      <polygon class="cls-1" points="14.67 0.35 33.93 33.46 48.07 8.83 28.61 8.83 30.72 12.62 41.41 12.62 33.93 25.79 19.08 0.35 14.67 0.35"/>
    </clipPath>
    <linearGradient id="Dégradé_sans_nom_4" data-name="Dégradé sans nom 4" x1="-193.82" y1="387.58" x2="-192.82" y2="387.58" gradientTransform="translate(9212.42 -18405.04) scale(47.53)" xlink:href="#Dégradé_sans_nom"/>
  </defs>
  <title>logo_white</title>
  <g id="Logo_Couleur" data-name="Logo Couleur">
    <g id="Symbole-3">
      <polygon class="cls-2" points="0 33.14 19.45 33.14 17.34 29.35 6.66 29.35 14.13 16.18 28.99 41.62 33.39 41.62 14.13 8.51 0 33.14"/>
      <polygon class="cls-3" points="0 33.14 19.45 33.14 17.34 29.35 6.66 29.35 14.13 16.18 28.99 41.62 33.39 41.62 14.13 8.51 0 33.14"/>
      <g class="cls-4">
        <rect class="cls-5" y="8.51" width="33.39" height="33.11"/>
      </g>
      <polygon class="cls-2" points="14.13 0 33.39 33.11 47.53 8.48 28.07 8.48 30.18 12.27 40.87 12.27 33.39 25.44 18.54 0 14.13 0"/>
      <polygon class="cls-6" points="14.13 0 33.39 33.11 47.53 8.48 28.07 8.48 30.18 12.27 40.87 12.27 33.39 25.44 18.54 0 14.13 0"/>
      <g class="cls-7">
        <rect class="cls-8" x="14.13" width="33.39" height="33.11"/>
      </g>
    </g>
    <g id="DEVELOPPEMENT">
      <path class="cls-9" d="M55.86,33.45v-5h1.73a4.82,4.82,0,0,1,.89.07,1.73,1.73,0,0,1,.73.36,2,2,0,0,1,.6.86A3.38,3.38,0,0,1,60,30.92a3.44,3.44,0,0,1-.13,1,2.36,2.36,0,0,1-.34.73,1.68,1.68,0,0,1-1.06.71,3.23,3.23,0,0,1-.8.08Zm.66-.59h1.07a2.69,2.69,0,0,0,.78-.09,1.09,1.09,0,0,0,.45-.26,1.62,1.62,0,0,0,.37-.63,3.08,3.08,0,0,0,.13-1,2.36,2.36,0,0,0-.26-1.21,1.25,1.25,0,0,0-.63-.56,2.44,2.44,0,0,0-.85-.11H56.52Z" transform="translate(-0.54 -0.35)"/>
      <path class="cls-9" d="M62.36,33.45v-5H66V29H63v1.54h2.77v.59H63v1.7h3.1v.59Z" transform="translate(-0.54 -0.35)"/>
      <path class="cls-9" d="M69.87,33.45l-1.94-5h.72L70,32.08c.11.29.19.57.27.82.07-.27.16-.54.26-.82l1.36-3.64h.68l-2,5Z" transform="translate(-0.54 -0.35)"/>
      <path class="cls-9" d="M74.55,33.45v-5h3.62V29h-3v1.54H78v.59H75.21v1.7h3.08v.59Z" transform="translate(-0.54 -0.35)"/>
      <path class="cls-9" d="M80.61,33.45v-5h.66v4.42h2.47v.59Z" transform="translate(-0.54 -0.35)"/>
      <path class="cls-9" d="M85.75,31a2.75,2.75,0,0,1,.67-2,2.46,2.46,0,0,1,3-.37,2,2,0,0,1,.85.92,2.93,2.93,0,0,1,.3,1.34,3,3,0,0,1-.31,1.37,2.19,2.19,0,0,1-.87.91,2.46,2.46,0,0,1-1.22.31,2.33,2.33,0,0,1-1.26-.34,2.15,2.15,0,0,1-.85-.94A2.83,2.83,0,0,1,85.75,31Zm.69,0a2,2,0,0,0,.48,1.43,1.62,1.62,0,0,0,1.23.52,1.56,1.56,0,0,0,1.23-.53A2.12,2.12,0,0,0,89.86,31a2.72,2.72,0,0,0-.2-1.07,1.55,1.55,0,0,0-.61-.7,1.63,1.63,0,0,0-.89-.26,1.73,1.73,0,0,0-1.22.49A2.18,2.18,0,0,0,86.44,31Z" transform="translate(-0.54 -0.35)"/>
      <path class="cls-9" d="M92.83,33.45v-5h1.89a4.67,4.67,0,0,1,.76,0,1.44,1.44,0,0,1,.62.24,1.13,1.13,0,0,1,.4.48,1.54,1.54,0,0,1,.15.68,1.52,1.52,0,0,1-.4,1.08,1.93,1.93,0,0,1-1.47.45H93.49v2Zm.66-2.63h1.3a1.36,1.36,0,0,0,.91-.23.87.87,0,0,0,.27-.68.89.89,0,0,0-.16-.54.82.82,0,0,0-.42-.29,2.72,2.72,0,0,0-.62,0H93.49Z" transform="translate(-0.54 -0.35)"/>
      <path class="cls-9" d="M98.93,33.45v-5h1.88a4.82,4.82,0,0,1,.77,0,1.49,1.49,0,0,1,.62.24,1.2,1.2,0,0,1,.4.48,1.62,1.62,0,0,1-.26,1.76,1.93,1.93,0,0,1-1.47.45H99.59v2Zm.66-2.63h1.29a1.4,1.4,0,0,0,.92-.23.87.87,0,0,0,.27-.68,1,1,0,0,0-.16-.54.82.82,0,0,0-.42-.29,2.72,2.72,0,0,0-.62,0H99.59Z" transform="translate(-0.54 -0.35)"/>
      <path class="cls-9" d="M105,33.45v-5h3.62V29h-3v1.54h2.77v.59H105.7v1.7h3.07v.59Z" transform="translate(-0.54 -0.35)"/>
      <path class="cls-9" d="M111.1,33.45v-5h1L113.28,32l.24.74.27-.8,1.2-3.49h.89v5h-.64V29.26l-1.46,4.19h-.59l-1.45-4.26v4.26Z" transform="translate(-0.54 -0.35)"/>
      <path class="cls-9" d="M118.39,33.45v-5H122V29h-3v1.54h2.77v.59H119v1.7h3.07v.59Z" transform="translate(-0.54 -0.35)"/>
      <path class="cls-9" d="M124.47,33.45v-5h.68l2.63,3.94V28.44h.64v5h-.68l-2.64-3.93v3.93Z" transform="translate(-0.54 -0.35)"/>
      <path class="cls-9" d="M132.23,33.45V29h-1.65v-.59h4V29H132.9v4.42Z" transform="translate(-0.54 -0.35)"/>
    </g>
    <polygon class="cls-9" points="101.79 22.9 103.95 22.9 95.71 8.63 95.19 8.63 95.19 22.9 97.39 22.9 97.35 15.37 101.79 22.9"/>
    <polygon class="cls-9" points="99.93 8.63 97.77 8.63 106 22.9 106.53 22.9 106.53 8.63 104.33 8.63 104.37 16.16 99.93 8.63"/>
    <g id="THUN_DR" data-name="THUN DR">
      <path class="cls-9" d="M65.42,8.86v1.81H61.7V23H59.54V10.67h-3.7V8.86Z" transform="translate(-0.54 -0.35)"/>
      <path class="cls-9" d="M76.26,8.86h2.16V23H76.26V16.8H69.89V23H67.73V8.86h2.16V15h6.37Z" transform="translate(-0.54 -0.35)"/>
      <path class="cls-9" d="M90.33,17.64V8.86h2.16V17.6a5.68,5.68,0,0,1-1.43,4.18,6.15,6.15,0,0,1-7.85,0,5.41,5.41,0,0,1-1.43-4V8.86h2.16v8.89a3.49,3.49,0,0,0,.87,2.63,3.23,3.23,0,0,0,2.3.83Q90.34,21.21,90.33,17.64Z" transform="translate(-0.54 -0.35)"/>
      <path class="cls-9" d="M110.32,8.86h4.41a7.07,7.07,0,0,1,5.16,2,6.6,6.6,0,0,1,2,5A7.34,7.34,0,0,1,120,21a6.82,6.82,0,0,1-5.24,2h-4.45Zm2.2,12.33h2.23a4.49,4.49,0,0,0,3.67-1.51,5.87,5.87,0,0,0,1.26-3.89,5.1,5.1,0,0,0-1.36-3.63,4.75,4.75,0,0,0-3.64-1.45h-2.16Z" transform="translate(-0.54 -0.35)"/>
      <path class="cls-9" d="M132,23l-3.32-5.38H126.8V23h-2.16V8.86h4A5.43,5.43,0,0,1,132.39,10a4.09,4.09,0,0,1,1.33,3.22A4.41,4.41,0,0,1,133,15.8a4.08,4.08,0,0,1-2,1.51l3.7,5.71Zm-5.2-12.33v5.16h2a2.73,2.73,0,0,0,2-.7,2.56,2.56,0,0,0,.69-1.88c0-1.72-.94-2.58-2.83-2.58Z" transform="translate(-0.54 -0.35)"/>
    </g>
  </g>
</svg>
